<svg width="28" height="28" viewBox="0 0 28 28" fill="none" xmlns="http://www.w3.org/2000/svg">
<mask id="mask0_1_481" style="mask-type:alpha" maskUnits="userSpaceOnUse" x="0" y="0" width="28" height="28">
<rect width="28" height="28" fill="#D9D9D9"/>
</mask>
<g mask="url(#mask0_1_481)">
<path d="M9.15836 15.1667L12.4834 18.4917C12.7167 18.725 12.8285 18.9972 12.8188 19.3083C12.8091 19.6195 12.6973 19.8917 12.4834 20.125C12.25 20.3583 11.9729 20.4799 11.6521 20.4896C11.3313 20.4993 11.0542 20.3875 10.8209 20.1542L5.48336 14.8167C5.25003 14.5833 5.13336 14.3111 5.13336 14C5.13336 13.6889 5.25003 13.4167 5.48336 13.1833L10.8209 7.84585C11.0542 7.61252 11.3313 7.50071 11.6521 7.51043C11.9729 7.52016 12.25 7.64168 12.4834 7.87502C12.6973 8.10835 12.8091 8.38057 12.8188 8.69168C12.8285 9.00279 12.7167 9.27502 12.4834 9.50835L9.15836 12.8333H22.1667C22.4973 12.8333 22.7743 12.9452 22.9979 13.1688C23.2216 13.3924 23.3334 13.6695 23.3334 14C23.3334 14.3306 23.2216 14.6077 22.9979 14.8313C22.7743 15.0549 22.4973 15.1667 22.1667 15.1667H9.15836Z" fill="white"/>
</g>
</svg>
