<svg width="28" height="28" viewBox="0 0 28 28" fill="none" xmlns="http://www.w3.org/2000/svg">
<g clip-path="url(#clip0_1_579)">
<path d="M13.0977 3.04609C8.73906 3.42344 4.97656 6.36016 3.62031 10.4508C3.2375 11.5992 3.11172 12.332 3.07891 13.5953C3.05703 14.2844 3.07344 14.8914 3.11172 15.2359C3.59844 19.3812 6.22344 22.7664 10.0898 24.2539C13.7102 25.643 17.7352 25.0141 20.825 22.5695C24.8992 19.3484 26.1461 13.7211 23.8164 9.07812C22.1211 5.70391 18.8289 3.44531 15.0445 3.0625C14.5141 3.01328 13.5953 3.00234 13.0977 3.04609ZM14.3555 8.58047C14.607 8.69531 14.7875 8.87578 14.8695 9.09453C14.9133 9.19844 14.9297 10.4508 14.9297 12.9172V16.5922L15.7445 15.7883C16.7727 14.7766 16.9805 14.6781 17.4891 14.9844C17.8445 15.2031 17.9922 15.7117 17.8063 16.0672C17.7625 16.1492 16.9914 16.9312 16.0891 17.8117C14.2789 19.5672 14.2242 19.6055 13.7703 19.4742C13.5734 19.4141 13.2891 19.157 11.982 17.8609C11.1289 17.0187 10.3633 16.2258 10.2758 16.1109C9.82188 15.4984 10.3852 14.6508 11.1453 14.793C11.3039 14.8203 11.5008 14.9898 12.2063 15.6844L13.0703 16.5375V12.8898C13.0703 10.4453 13.0867 9.19844 13.1305 9.09453C13.2453 8.78281 13.6773 8.47656 14 8.47656C14.0766 8.47656 14.2352 8.52578 14.3555 8.58047Z" fill="#662AB2"/>
</g>
<defs>
<clipPath id="clip0_1_579">
<rect width="28" height="28" fill="white"/>
</clipPath>
</defs>
</svg>
