<svg width="32" height="33" viewBox="0 0 32 33" fill="none" xmlns="http://www.w3.org/2000/svg">
<path d="M12 22.6875C11.0667 22.6875 10.2778 22.3552 9.63333 21.6906C8.98889 21.026 8.66667 20.2125 8.66667 19.25C8.66667 18.2875 8.98889 17.474 9.63333 16.8094C10.2778 16.1448 11.0667 15.8125 12 15.8125C12.9333 15.8125 13.7222 16.1448 14.3667 16.8094C15.0111 17.474 15.3333 18.2875 15.3333 19.25C15.3333 20.2125 15.0111 21.026 14.3667 21.6906C13.7222 22.3552 12.9333 22.6875 12 22.6875ZM6.66667 30.25C5.93333 30.25 5.30556 29.9807 4.78333 29.4422C4.26111 28.9036 4 28.2563 4 27.5V8.25C4 7.49375 4.26111 6.84635 4.78333 6.30781C5.30556 5.76927 5.93333 5.5 6.66667 5.5H8V2.75H10.6667V5.5H21.3333V2.75H24V5.5H25.3333C26.0667 5.5 26.6944 5.76927 27.2167 6.30781C27.7389 6.84635 28 7.49375 28 8.25V27.5C28 28.2563 27.7389 28.9036 27.2167 29.4422C26.6944 29.9807 26.0667 30.25 25.3333 30.25H6.66667ZM6.66667 27.5H25.3333V13.75H6.66667V27.5Z" fill="#1D1B20"/>
</svg>
