<svg width="28" height="28" viewBox="0 0 28 28" fill="none" xmlns="http://www.w3.org/2000/svg">
<path d="M12.4961 2.70704C8.72266 3.2047 5.48516 5.51251 3.80625 8.89767C3.04609 10.4289 2.69609 11.8344 2.64141 13.5899C2.60313 14.7328 2.70156 15.657 2.95859 16.6797C4.42969 22.5313 10.2648 26.2117 16.1711 25.0195C20.8414 24.0735 24.3961 20.3219 25.1289 15.5586C25.2547 14.7438 25.2602 13.1469 25.1344 12.332C24.4344 7.76017 21.1586 4.10158 16.7617 2.98048C15.4219 2.63595 13.8086 2.53751 12.4961 2.70704ZM11.5008 7.62345C11.8781 7.77658 12.0859 8.1922 12.0039 8.62423C11.9766 8.78829 11.8508 8.95236 11.3859 9.4172L10.8117 10.0078L15.1375 10.0188C19.4086 10.0352 19.4633 10.0352 19.6109 10.15C19.9008 10.3633 19.9883 10.5383 19.9883 10.8828C19.9883 11.2274 19.9008 11.4024 19.6109 11.6156C19.4633 11.7305 19.4086 11.7305 15.1375 11.7469L10.8117 11.7578L11.3859 12.3485C12.0094 12.9774 12.0859 13.125 12.0039 13.5461C11.9547 13.8195 11.6266 14.1422 11.3531 14.1914C10.8992 14.2789 10.8008 14.2078 9.31328 12.7258C7.35547 10.768 7.36094 11.0031 9.25859 9.08361C10.8063 7.52501 10.9922 7.4047 11.5008 7.62345ZM17.2047 13.8305C17.5656 14.093 19.8953 16.4774 19.9555 16.6414C20.043 16.8766 20.0266 17.1555 19.9117 17.3797C19.775 17.6367 17.2484 20.1524 17.0461 20.2289C16.3516 20.4914 15.668 19.9063 15.8539 19.2117C15.8977 19.0586 16.0563 18.8563 16.4609 18.457C16.7617 18.1563 17.0078 17.8938 17.0078 17.8719C17.0078 17.8445 15.0883 17.8281 12.7422 17.8281C8.01172 17.8281 8.29609 17.85 8.00078 17.4672C7.88047 17.3086 7.85313 17.2102 7.85313 16.975C7.85313 16.6469 7.95703 16.461 8.25781 16.2531L8.43828 16.1328H12.7203C15.0773 16.1328 17.0078 16.1164 17.0078 16.0891C17.0078 16.0672 16.7836 15.8266 16.5102 15.5586C15.7609 14.8203 15.6406 14.4156 16.0398 13.9617C16.2477 13.7266 16.357 13.6774 16.7125 13.6774C16.9367 13.6719 17.0352 13.7047 17.2047 13.8305Z" fill="#662AB2"/>
</svg>
