<svg width="28" height="28" viewBox="0 0 28 28" fill="none" xmlns="http://www.w3.org/2000/svg">
<path d="M14.4375 2.82734C14.1641 2.88203 5.32656 6.24531 5.02031 6.40938C4.42422 6.72656 3.86641 7.39375 3.60391 8.11016C3.47813 8.44922 3.47266 8.45469 3.46172 11.8125C3.44531 14.443 3.46172 15.2031 3.51094 15.3125C3.54922 15.3891 3.68047 15.4984 3.79531 15.5531C3.98125 15.6461 4.04141 15.6516 4.23281 15.5914C5.98281 15.0828 7.65078 15.2359 9.07812 16.0344C10.2102 16.6742 11.2109 17.7898 11.6812 18.9492C11.9984 19.7203 12.0969 20.1797 12.1242 21.0328C12.157 21.9188 12.0859 22.3781 11.7797 23.2695C11.55 23.9531 11.5445 24.1172 11.7523 24.3469L11.9109 24.5273H16.3078C20.393 24.5273 20.7211 24.5219 21.0492 24.4289C22.7227 23.9531 23.882 22.6516 24.1117 20.9727C24.2266 20.1523 24.1664 19.8297 23.8219 19.4906C23.532 19.1953 23.3188 19.1406 22.4766 19.1406C21.4539 19.1406 20.9016 18.9602 20.3984 18.4625C19.9008 17.9758 19.7203 17.5164 19.7531 16.8C19.775 16.2094 19.9391 15.8266 20.3492 15.3945C20.8852 14.8313 21.4211 14.6617 22.6844 14.6562C23.2477 14.6562 23.3898 14.6398 23.5703 14.5469C24.0406 14.3063 24.2047 13.8688 24.1555 12.9938C24.0844 11.8453 23.7234 11.0305 22.9414 10.2539C22.3836 9.69609 22.0281 9.46641 21.3445 9.22031L20.8633 9.05078L18.8836 9.03438L16.9039 9.01797L16.8875 6.68281L16.8711 4.34766L16.6906 3.98125C16.4664 3.52188 16.0344 3.11719 15.5969 2.95312C15.2852 2.83828 14.7 2.77266 14.4375 2.82734ZM15.1211 4.56641L15.2578 4.69766V6.86328V9.02344H11.1727C6.83047 9.02344 6.76484 9.02891 6.06484 9.29141C5.90078 9.35703 5.62188 9.49375 5.44687 9.59766C5.27188 9.70156 5.11328 9.78906 5.10234 9.78906C5.08594 9.78906 5.08594 9.5375 5.09687 9.22578C5.12422 8.56953 5.21719 8.33438 5.6 8.00625C5.80234 7.82578 6.15234 7.67813 7.90781 7.01641C9.05078 6.58438 11.0523 5.82969 12.3594 5.3375C13.6664 4.83984 14.793 4.43516 14.8641 4.43516C14.9352 4.42969 15.05 4.48984 15.1211 4.56641ZM16.3953 12.9609C16.4937 13.0211 16.6195 13.1469 16.6797 13.2453C16.8984 13.6062 16.7672 14.0984 16.3953 14.3281C16.2203 14.432 16.1109 14.4375 13.2125 14.4375H10.2102L9.975 14.1969C9.74531 13.9727 9.73438 13.9453 9.73438 13.6445C9.73438 13.3438 9.74531 13.3164 9.975 13.0922L10.2102 12.8516H13.2125C16.1109 12.8516 16.2203 12.857 16.3953 12.9609Z" fill="#662AB2"/>
<path d="M21.7 15.8594C21.2297 16.0015 20.9344 16.3625 20.9016 16.8328C20.8797 17.232 21.0383 17.5656 21.3719 17.8008L21.6125 17.9648L22.6516 17.9812C23.3898 17.9922 23.7453 17.9812 23.8602 17.932C24.1008 17.8281 24.1719 17.5984 24.1719 16.8984C24.1719 15.8648 24.0898 15.8047 22.7391 15.8101C22.2469 15.8101 21.782 15.832 21.7 15.8594Z" fill="#662AB2"/>
<path d="M5.55078 16.9586C4.2875 17.1555 3.21016 17.8445 2.51016 18.9109C1.75 20.0703 1.60781 21.5523 2.12734 22.8922C2.59766 24.1063 3.77344 25.1453 5.06953 25.4953C5.66562 25.6539 6.63906 25.6539 7.24609 25.4898C8.80469 25.0797 10.0188 23.8438 10.3906 22.3016C10.5383 21.6781 10.5383 20.7867 10.3906 20.2016C9.99687 18.6758 8.77187 17.4453 7.25703 17.0625C6.74297 16.9367 5.99375 16.8875 5.55078 16.9586ZM6.5625 18.9328C6.90703 19.1734 6.97266 19.3102 6.98906 19.9117L7.01094 20.4531H7.45937C8.20312 20.4531 8.60234 20.7484 8.60234 21.3117C8.60234 21.5852 8.4875 21.7766 8.20312 21.968C8.05 22.0773 7.95156 22.0938 7.51406 22.0938H7V22.5422C7 23.0891 6.87422 23.4063 6.60625 23.5703C6.22891 23.8 5.70391 23.6633 5.46875 23.2859C5.38125 23.1383 5.35937 23.007 5.35937 22.5969V22.0938H4.81797C4.35312 22.0938 4.26016 22.0773 4.10156 21.968C3.61484 21.6398 3.60391 21 4.07422 20.6391C4.26016 20.4969 4.32578 20.4805 4.81797 20.4641L5.35937 20.4422V19.9117C5.35937 19.4852 5.38125 19.3539 5.46875 19.2063C5.70391 18.8234 6.2125 18.6977 6.5625 18.9328Z" fill="#662AB2"/>
</svg>
